# xmcd CD database file
#
# Track frame offsets:
#	150
#	24081
#	35170
#	47388
#	61025
#	72262
#	82150
#	96836
#	110283
#	123682
#	136631
#	151538
#	170416
#	182338
#	196900
#	212211
#	226226
#	243089
#	258311
#	272001
#
# Disc length: 3903 seconds
#
# Revision: 0
# Processed by: cddbd v1.5.2PL0 Copyright (c) Steve Scherf et al.
# Submitted via: CDex 1.51
#
DISCID=fd0f3d14
DTITLE=Lambert, Hendricks and Ross - Seven Classic Albums (Remaster)
DYEAR=2014
DGENRE=Jazz
TTITLE0=Everyday I Have The Blues (1957, Sing A Song of Basie)
TTITLE1=It's Sand Man (1957, Sing A Song of Basie)
TTITLE2=Two For The Blues (1957, Sing A Song of Basie)
TTITLE3=One O'Clock Jump (1957, Sing A Song of Basie)
TTITLE4=Little Pony (1957, Sing A Song of Basie)
TTITLE5=Down For Double (1957, Sing A Song of Basie)
TTITLE6=Fiesta In Blue (1957, Sing A Song of Basie)
TTITLE7=Down For The Count (1957, Sing A Song of Basie)
TTITLE8=Blues Backstage (1957, Sing A Song of Basie)
TTITLE9=Avenue C (1957, Sing A Song of Basie)
TTITLE10=Jumpin At The Woodside (1958, Sing Along With Basie)
TTITLE11=Goin' To Chicago Blues (1958, Sing Along With Basie)
TTITLE12=Tickle Toe (1958, Sing Along With Basie)
TTITLE13=Let Me See (1958, Sing Along With Basie)
TTITLE14=Every Tub (1958, Sing Along With Basie)
TTITLE15=Shorty George (1958, Sing Along With Basie)
TTITLE16=Rusty Dusty Blues (1958, Sing Along With Basie)
TTITLE17=The King (1958, Sing Along With Basie)
TTITLE18=Swingin' The Blues (1958, Sing Along With Basie)
TTITLE19=L'il Darlin' (1958, Sing Along With Basie)
EXTD=YEAR: 2014
EXTT0=
EXTT1=
EXTT2=
EXTT3=
EXTT4=
EXTT5=
EXTT6=
EXTT7=
EXTT8=
EXTT9=
EXTT10=
EXTT11=
EXTT12=
EXTT13=
EXTT14=
EXTT15=
EXTT16=
EXTT17=
EXTT18=
EXTT19=
PLAYORDER=
